<svg id="Layer_2" data-name="Layer 2" xmlns="http://www.w3.org/2000/svg" viewBox="0 0 446.22 362.55"><defs><style>.cls-1{fill:#fff;}</style></defs><path class="cls-1" d="M26.89,403.12s164.89,105.55,308.89-19.86c0,0,92-73.26,90.66-207.36,0,0,29.34-22.35,46.67-49.67,0,0-20,7.45-50.67,13.66,0,0,30.67-18.62,40-48.42,0,0-40,16.14-60,21.11,0,0-40-50.91-104-21.11S250,193.28,250,193.28s-90.22,14.9-190.22-91.88c0,0-38.22,84.3,27.55,120.72,0,0-19.55,3.86-39.7-11,0,0-5.33,77.81,69.93,89.95,0,0,3,6.07-39.71,5,0,0,25.48,67.32,84.74,60.7C162.59,366.7,109.85,413.06,26.89,403.12Z" transform="translate(-26.89 -82.11)"/></svg>